<?xml version="1.0" encoding="utf-8"?>
<!-- Generator: Adobe Illustrator 26.5.1, SVG Export Plug-In . SVG Version: 6.00 Build 0)  -->
<svg version="1.1" id="Camada_1" xmlns="http://www.w3.org/2000/svg" xmlns:xlink="http://www.w3.org/1999/xlink" x="0px" y="0px"
	 viewBox="0 0 1920 1280" style="enable-background:new 0 0 1920 1280;" xml:space="preserve">
<style type="text/css">
	.st0{clip-path:url(#SVGID_00000118361827737684012100000017662861120391235006_);fill:#002E40;}
	.st1{clip-path:url(#SVGID_00000118361827737684012100000017662861120391235006_);}
	.st2{fill:#B36C00;}
	.st3{fill:#C87900;}
	.st4{fill:#DE8600;}
	.st5{fill:#F49200;}
	.st6{fill:#FF9900;}
</style>
<g>
	<g>
		<defs>
			<rect id="SVGID_1_" width="1920.09" height="1280.32"/>
		</defs>
		<clipPath id="SVGID_00000131329374797958902480000003469855410021026207_">
			<use xlink:href="#SVGID_1_"  style="overflow:visible;"/>
		</clipPath>
		
			<rect y="0.85" style="clip-path:url(#SVGID_00000131329374797958902480000003469855410021026207_);fill:#002E40;" width="1917.96" height="1279.46"/>
		<g style="clip-path:url(#SVGID_00000131329374797958902480000003469855410021026207_);">
			<path class="st2" d="M1236.38,1283.32c37.56-62.95,74.94-125.9,95.89-186.07c20.77-60.17,24.92-117.58,32.68-192.69
				c7.58-75.11,18.6-168.15,71.69-192.47c53.1-24.33,148.45,19.84,205.33,2.13c56.89-17.92,75.48-97.94,115.4-148.09
				c40.09-50.15,101.31-70.42,162.71-90.69v807.88H1236.38z"/>
			<path class="st3" d="M1373.08,1283.32c29.98-50.36,60.14-100.72,76.75-148.94c16.61-48.01,20.05-93.89,26-154.06
				c6.14-60.17,14.99-134.43,57.43-154.06c42.62-19.42,118.83,16,164.34,1.71c45.51-14.3,60.32-78.31,92.28-118.43
				c31.96-40.12,81.08-56.33,130.2-72.55v646.35H1373.08z"/>
			<path class="st4" d="M1509.97,1283.32c22.39-37.77,44.96-75.54,57.43-111.6c12.46-36.06,14.99-70.63,19.5-115.66
				c4.69-45.02,11.2-100.93,43.16-115.44c31.78-14.72,89.03,11.95,123.16,1.28c34.13-10.88,45.33-58.89,69.35-88.98
				c23.84-30.09,60.68-42.25,97.52-54.2v484.6H1509.97z"/>
			<path class="st5" d="M1646.68,1283.32c14.99-25.18,29.98-50.36,38.28-74.47c8.31-24.11,9.93-46.94,13-77.03
				c3.07-30.09,7.4-67.22,28.72-77.03c21.31-9.6,59.41,8.11,82.17,0.85c22.75-7.04,30.16-39.26,46.23-59.32
				c15.89-20.06,40.45-27.95,65.01-36.06v323.07H1646.68z"/>
			<path class="st2" d="M807.72,0c-47.79,57.83-95.58,115.87-103.04,188.85c-7.25,73.19,26.03,161.53-5.12,215.09
				c-31.36,53.56-127.37,72.34-198.62,97.09c-71.47,24.54-118.41,55.05-169.18,73.62c-50.78,18.78-105.18,25.39-161.07,62.31
				C114.78,673.66,57.39,740.88,0,807.88V0H807.72z"/>
			<path class="st3" d="M646.22,0c-38.4,46.3-76.59,92.61-82.35,151.08c-5.76,58.47,20.69,129.1-4.27,171.99
				c-25.17,42.89-101.76,58.04-158.94,77.67c-57.18,19.84-94.72,44.17-135.26,59.11c-40.54,14.72-84.27,20.27-128.86,49.72
				C91.74,539.01,45.87,592.57,0,646.35V0H646.22z"/>
			<path class="st4" d="M484.5,0c-28.59,34.78-57.18,69.56-61.66,113.31c-4.27,43.96,15.57,96.88-3.2,129.1
				c-18.77,32.01-76.38,43.32-119.05,58.25c-42.88,14.72-71.04,33.07-101.55,44.17c-30.51,11.1-63.15,15.15-96.64,37.34
				C68.91,404.15,34.35,444.48,0,484.6V0H484.5z"/>
			<path class="st6" d="M323,0c-18.99,23.26-38.19,46.3-41.18,75.54c-2.77,29.23,10.45,64.66-2.13,85.99
				c-12.37,21.55-50.78,29.02-79.36,38.84c-28.59,9.82-47.36,21.98-67.63,29.45s-42.03,10.24-64.43,24.97
				C45.87,269.51,23.04,296.39,0,323.07V0H323z"/>
			<path class="st6" d="M161.5,0c-9.6,11.52-18.99,23.26-20.48,37.77c-1.49,14.72,5.12,32.22-1.07,43.1
				c-6.4,10.67-25.6,14.3-39.68,19.42c-14.29,4.91-23.68,10.88-33.92,14.72c-10.24,3.63-21.12,4.91-32.21,12.38
				c-11.09,7.26-22.61,20.7-34.13,34.14V0H161.5z"/>
		</g>
	</g>
</g>
</svg>
