<?xml version="1.0" encoding="utf-8"?>
<!-- Generator: Adobe Illustrator 26.5.1, SVG Export Plug-In . SVG Version: 6.00 Build 0)  -->
<svg version="1.1" id="Layer_1" xmlns="http://www.w3.org/2000/svg" xmlns:xlink="http://www.w3.org/1999/xlink" x="0px" y="0px"
	 viewBox="0 0 1920 1080" style="enable-background:new 0 0 1920 1080;" xml:space="preserve">
<style type="text/css">
	.st0{fill:none;stroke:#000000;stroke-width:10;stroke-linecap:round;stroke-miterlimit:10;}
	.st1{fill:none;stroke:#000000;stroke-width:10;stroke-miterlimit:10;}
</style>
<polyline class="st0" points="844.32,636.58 743.25,636.58 743.5,509.5 "/>
<path class="st0" d="M878.5,438.5h163.13c11.25,0,20.37,9.12,20.37,20.37v177.71H960"/>
<path class="st0" d="M743.25,636.58h-31.98c-4.35,0-7.87,3.52-7.87,7.87v18.73c0,5.38,4.36,9.74,9.74,9.74L818,673l166.2-0.08
	h111.02c5.49,0,9.94-4.45,9.94-9.94v-14.37c0-6.64-5.39-12.03-12.03-12.03H1062"/>
<line class="st0" x1="880" y1="486" x2="1036.76" y2="486"/>
<line class="st0" x1="880" y1="510" x2="1036.76" y2="510"/>
<line class="st0" x1="880" y1="534" x2="1036.76" y2="534"/>
<line class="st0" x1="885" y1="462" x2="919.4" y2="462"/>
<circle class="st0" cx="785" cy="433" r="86"/>
<path class="st0" d="M738.54,435.1l22.19,21.16c6.31,6.01,16.22,6.02,22.53,0.01l41.14-39.15c5.37-5.11,5.78-13.54,0.94-19.15
	l-0.33-0.39c-5.41-6.26-14.99-6.61-20.84-0.76l-32.92,32.92L755.6,414.1c-4.54-4.54-11.96-4.35-16.26,0.42l-1.51,1.68
	C732.91,421.66,733.23,430.03,738.54,435.1z"/>
<path class="st1" d="M898.64,571.71c22.71,0,41.12,18.41,41.12,41.12c0,22.71-18.41,41.12-41.12,41.12
	c-22.71,0-41.12-18.41-41.12-41.12C857.52,590.12,875.93,571.71,898.64,571.71"/>
<path class="st0" d="M869.01,642.69c-10.83,6.32-18.16,16.07-19.33,27.18c-0.18,1.67,1.13,3.13,2.81,3.13h91.53
	c1.68,0,2.99-1.46,2.81-3.13c-1.15-10.94-8.28-20.57-18.85-26.9"/>
</svg>
