<?xml version="1.0" encoding="utf-8"?>
<!-- Generator: Adobe Illustrator 26.5.1, SVG Export Plug-In . SVG Version: 6.00 Build 0)  -->
<svg version="1.1" id="Layer_1" xmlns="http://www.w3.org/2000/svg" xmlns:xlink="http://www.w3.org/1999/xlink" x="0px" y="0px"
	 viewBox="0 0 1920 1080" style="enable-background:new 0 0 1920 1080;" xml:space="preserve">
<style type="text/css">
	.st0{fill:none;stroke:#000000;stroke-width:10;stroke-miterlimit:10;}
	.st1{fill:none;stroke:#000000;stroke-width:10;stroke-linecap:round;stroke-miterlimit:10;}
</style>
<path class="st0" d="M713.23,252h401.06c20.55,0,37.21,15.68,37.21,35.01v488.99c0,26.51-22.83,47.99-51,47.99H720.6
	c-25.18,0-45.59-19.22-45.57-42.91l0.35-493.49C675.4,267.93,692.34,252,713.23,252z"/>
<path class="st0" d="M772,616"/>
<path class="st0" d="M1109.58,252h112.71c22.16,0,40.13,21.83,40.13,48.76v50.72c0,25.98-17.33,47.04-38.71,47.04h-74.26h81.52
	c17.37,0,31.45,17.11,31.45,38.22v54.06c0,24.99-16.67,45.24-37.23,45.24h-75.74h79.23c18.63,0,33.74,18.35,33.74,41v60.6
	c0,19.48-13,35.28-29.03,35.28h-83.93h79.9c18.26,0,33.06,17.99,33.06,40.18v55.86c0,30.31-20.22,54.88-45.16,54.88L1067,824"/>
<line class="st1" x1="736" y1="650" x2="1090" y2="650"/>
<line class="st1" x1="775" y1="704.08" x2="1058.75" y2="704.08"/>
<circle class="st0" cx="910" cy="411" r="108"/>
<path class="st0" d="M832.2,489.4C801.11,507.55,781,536.45,781,569h256c0-32.11-19.56-60.66-49.93-78.86"/>
</svg>
