<?xml version="1.0" encoding="utf-8"?>
<!-- Generator: Adobe Illustrator 26.0.0, SVG Export Plug-In . SVG Version: 6.00 Build 0)  -->
<svg version="1.1" id="Camada_1" xmlns="http://www.w3.org/2000/svg" xmlns:xlink="http://www.w3.org/1999/xlink" x="0px" y="0px"
	 viewBox="0 0 230 284" style="enable-background:new 0 0 230 284;" xml:space="preserve">
<style type="text/css">
	.st0{fill:#FA9600;}
</style>
<g>
	<path class="st0" d="M114.95,172.2c-28.32,0-53.85-15.84-64.69-40.12c-10.84-24.3-4.85-52.26,15.16-70.86
		c20.04-18.57,50.16-24.13,76.34-14.07c26.15,10.06,43.22,33.76,43.22,60.04C184.93,143.09,153.61,172.16,114.95,172.2z
		 M114.95,32.91c-32.38,0-61.56,18.09-73.94,45.85c-12.4,27.77-5.55,59.73,17.35,80.96c22.87,21.26,57.31,27.62,87.23,16.11
		c29.91-11.49,49.4-38.57,49.4-68.63C194.93,66.19,159.14,32.96,114.95,32.91z"/>
	<path class="st0" d="M114.95,267.85C96.45,250.68,9.9,167.2,9.9,107.2c0-53.85,47.03-97.5,105.05-97.5S220,53.35,220,107.2
		C220,167.2,133.44,250.68,114.95,267.85z M114.95,0.41C51.43,0.49-0.02,48.25-0.1,107.2c0,70.81,107.05,166.48,111.61,170.51
		c1.93,1.71,4.98,1.71,6.91,0C122.95,273.68,230,178.01,230,107.2C229.92,48.25,178.46,0.49,114.95,0.41z"/>
	<path class="st0" d="M159.97,125.77c-4.46,0-6.7-5.01-3.54-7.93c3.15-2.93,8.54-0.85,8.54,3.29
		C164.97,123.69,162.73,125.77,159.97,125.77z M109.95,102.37l-32.62-9.09l32.62-9.09l32.62,9.09L109.95,102.37z M129.96,125.77
		H89.94v-19.3l18.57,5.18c0.94,0.27,1.93,0.27,2.87,0l18.57-5.18V125.77z M164.97,108.05V93.27c0-2.06-1.46-3.87-3.57-4.45
		l-50.02-13.93c-0.94-0.27-1.93-0.27-2.87,0L58.49,88.82c-4.77,1.33-4.77,7.57,0,8.9l21.44,5.97v26.72c0,2.56,2.24,4.64,5,4.64
		h50.02c2.76,0,5-2.08,5-4.64V103.7l15.01-4.18v8.54c-15.89,5.22-11.85,27.06,5,27.06S180.87,113.27,164.97,108.05z"/>
</g>
</svg>
