<?xml version="1.0" encoding="utf-8"?>
<!-- Generator: Adobe Illustrator 27.0.0, SVG Export Plug-In . SVG Version: 6.00 Build 0)  -->
<svg version="1.1" id="Camada_1" xmlns="http://www.w3.org/2000/svg" xmlns:xlink="http://www.w3.org/1999/xlink" x="0px" y="0px"
	 viewBox="0 0 535 113.39" style="enable-background:new 0 0 535 113.39;" xml:space="preserve">
<style type="text/css">
	.st0{fill:#FFFFFF;}
</style>
<g>
	<path class="st0" d="M120.93,109.38l-4.03,4.01H12.67l-4.1-4.08l51-26.66l0.56-0.29c1.35,0.81,2.93,1.29,4.63,1.29
		c1.67,0,3.23-0.46,4.56-1.25h0l0.7,0.37L120.93,109.38z"/>
	<path class="st0" d="M124.52,100.16l-1.46,5.53L74.48,74.85l-0.8-0.5c-0.12-3.11-1.83-5.81-4.33-7.32l-0.05-1.3L66.91,8.94
		l5.48,1.49L124.52,100.16z"/>
	<path class="st0" d="M62.66,8.94l-2.39,56.89l-0.05,1.15c-2.53,1.49-4.27,4.19-4.41,7.3l-0.91,0.58L6.44,105.62L5,100.2
		l52.01-89.73L62.66,8.94z"/>
	<polygon class="st0" points="273.08,43.65 273.08,0 255.62,0 255.62,26.19 150.85,26.19 150.85,96.04 263.02,96.04 273.08,78.58 
		273.08,78.58 168.31,78.58 168.31,43.65 	"/>
	<rect x="334.19" y="26.19" class="st0" width="17.46" height="43.65"/>
	<rect x="386.58" y="26.19" class="st0" width="17.46" height="43.65"/>
	<polygon class="st0" points="299.27,26.19 281.81,26.19 281.81,96.04 393.98,96.04 404.04,78.58 404.04,78.58 299.27,78.58 	"/>
	<rect x="412.77" y="52.38" class="st0" width="17.46" height="43.65"/>
	<rect x="465.15" y="52.38" class="st0" width="17.46" height="43.65"/>
	<polygon class="st0" points="422.83,26.19 412.77,43.65 412.77,43.65 517.54,43.65 517.54,96.04 535,96.04 535,26.19 	"/>
</g>
</svg>
