<?xml version="1.0" encoding="utf-8"?>
<!-- Generator: Adobe Illustrator 26.5.1, SVG Export Plug-In . SVG Version: 6.00 Build 0)  -->
<svg version="1.1" id="Layer_1" xmlns="http://www.w3.org/2000/svg" xmlns:xlink="http://www.w3.org/1999/xlink" x="0px" y="0px"
	 viewBox="0 0 1920 1080" style="enable-background:new 0 0 1920 1080;" xml:space="preserve">
<style type="text/css">
	.st0{fill:none;stroke:#000000;stroke-width:10;stroke-miterlimit:10;}
	.st1{fill:none;stroke:#000000;stroke-width:10;stroke-linecap:round;stroke-miterlimit:10;}
	.st2{fill:none;stroke:#000000;stroke-width:11;stroke-miterlimit:10;}
</style>
<path class="st0" d="M544,400.57v6.67v319.98c0,15.34-12.44,27.78-27.78,27.78h-314.7c-16.1,0-29.16-13.06-29.16-29.16V304.08
	c0-11.64,9.44-21.08,21.08-21.08h242.29L544,400.57z"/>
<path class="st0" d="M466.7,394.5l69.22-2l-95.42-100l-3.66,72.81C437.21,381.54,450.47,394.5,466.7,394.5z"/>
<line class="st1" x1="221.5" y1="487.5" x2="492.04" y2="487.5"/>
<line class="st1" x1="221.5" y1="550.5" x2="492.04" y2="550.5"/>
<line class="st1" x1="221.5" y1="613.5" x2="492.04" y2="613.5"/>
<line class="st1" x1="222.5" y1="676.5" x2="357" y2="676.5"/>
<path class="st2" d="M264.01,329.34c19.77,0,35.8,16.03,35.8,35.8c0,19.77-16.03,35.8-35.8,35.8s-35.8-16.03-35.8-35.8
	C228.21,345.36,244.24,329.34,264.01,329.34"/>
<path class="st2" d="M238.22,391.12c-10.3,6.02-16.97,15.6-16.97,26.38h84.85c0-10.64-6.48-20.11-16.55-26.14"/>
</svg>
