<?xml version="1.0" encoding="utf-8"?>
<!-- Generator: Adobe Illustrator 26.5.1, SVG Export Plug-In . SVG Version: 6.00 Build 0)  -->
<svg version="1.1" id="Layer_1" xmlns="http://www.w3.org/2000/svg" xmlns:xlink="http://www.w3.org/1999/xlink" x="0px" y="0px"
	 viewBox="0 0 1920 1080" style="enable-background:new 0 0 1920 1080;" xml:space="preserve">
<style type="text/css">
	.st0{fill:none;stroke:#000000;stroke-width:7;stroke-miterlimit:10;}
	.st1{fill:none;stroke:#000000;stroke-width:10;stroke-miterlimit:10;}
	.st2{fill:none;stroke:#000000;stroke-width:9;stroke-miterlimit:10;}
</style>
<path class="st0" d="M734.88,481.07h380.37c10.3,0,19.01,7.65,20.33,17.86l30.31,233.3c1.59,12.27-7.96,23.15-20.33,23.15H759.68
	c-10.49,0-19.28-7.91-20.39-18.34l-24.8-233.3C713.21,491.63,722.7,481.07,734.88,481.07z"/>
<path class="st0" d="M1120.3,481.07l69.06,35.21c9.61,4.72,14.89,15.27,12.92,25.79l-37.42,199.74"/>
<line class="st0" x1="726.66" y1="618.23" x2="862.2" y2="618.23"/>
<line class="st0" x1="1151.08" y1="618.23" x2="1001.51" y2="618.23"/>
<circle class="st0" cx="931.85" cy="618.23" r="35.37"/>
<path class="st1" d="M750.96,481.07l-25.33-24.03c-9.21-8.74-9.44-23.35-0.5-32.37l86.31-87.09c8.9-8.98,23.44-8.93,32.28,0.11
	l75.71,77.49"/>
<path class="st2" d="M887.03,481.07l-7.78-36.06c-2.27-10.52,4.39-20.89,14.89-23.21l221.34-48.88
	c10.45-2.31,20.81,4.22,23.25,14.64l27.33,116.85"/>
<line class="st1" x1="761.76" y1="448.67" x2="836.28" y2="372.46"/>
<path class="st1" d="M810.36,448.67"/>
<line class="st1" x1="862.2" y1="400.08" x2="810.36" y2="448.67"/>
<line class="st1" x1="918.24" y1="451.26" x2="1101.36" y2="410.57"/>
<line class="st1" x1="1113.65" y1="442.29" x2="981.9" y2="469.29"/>
</svg>
