<?xml version="1.0" encoding="utf-8"?>
<!-- Generator: Adobe Illustrator 26.5.1, SVG Export Plug-In . SVG Version: 6.00 Build 0)  -->
<svg version="1.1" id="Layer_1" xmlns="http://www.w3.org/2000/svg" xmlns:xlink="http://www.w3.org/1999/xlink" x="0px" y="0px"
	 viewBox="0 0 1920 1080" style="enable-background:new 0 0 1920 1080;" xml:space="preserve">
<style type="text/css">
	.st0{fill:none;stroke:#000000;stroke-width:10;stroke-miterlimit:10;}
</style>
<path class="st0" d="M736.76,503h244.39c11.84,0,21.43,9.6,21.43,21.43L1005,550l50.5,0.12v154.43l-320.62-0.04
	c-12.02,0-21.69-9.87-21.45-21.88l1.56-78.85l1.61-81C716.82,511.79,725.78,503,736.76,503z"/>
<polyline class="st0" points="1005,550 950.67,550 950.67,704.54 "/>
<path class="st0" d="M852.56,581.1h14.87c10.87,0,19.68,8.81,19.68,19.68v0c0,14.63-13.47,20.22-28.1,20.22l0,0
	c-14.08,0-27.12-5.14-27.12-19.22l0,0C831.88,590.36,841.14,581.1,852.56,581.1z"/>
<path class="st0" d="M887.1,600.78h38.82c13.67,0,24.75-11.08,24.75-24.75v0"/>
<path class="st0" d="M831.88,601.78l-35.87,0.61c-44.25,0.75-80.28-35.38-79.4-79.63v0"/>
<line class="st0" x1="990" y1="576" x2="1040.31" y2="576.03"/>
<line class="st0" x1="985" y1="601" x2="1040.31" y2="600.78"/>
<line class="st0" x1="969.03" y1="627.27" x2="1040.31" y2="627.27"/>
<line class="st0" x1="969" y1="652" x2="1040.31" y2="652"/>
<line class="st0" x1="969" y1="679" x2="1040.31" y2="679"/>
<path class="st0" d="M812.44,503v-25.79c0-9.84,7.98-17.82,17.82-17.82h54.54c10.14,0,18.36,8.22,18.36,18.36V503"/>
<path class="st0" d="M832,503v-10.66c0-6.26,5.47-11.34,12.21-11.34h24.28c7.62,0,15.97,5.73,15.97,12.81V503"/>
</svg>
